<svg xmlns="http://www.w3.org/2000/svg" xmlns:xlink="http://www.w3.org/1999/xlink" version="1.1" x="0px" y="0px" viewBox="0 0 110 137.5" enable-background="new 0 0 110 110" xml:space="preserve"><g><path d="M88,52h14c1.654,0,3-1.346,3-3V35c0-1.654-1.346-3-3-3H88c-1.654,0-3,1.346-3,3v3c-1.314,0-2.422,0.855-2.826,2.035   C82.115,40.024,82.062,40,82,40h-6c-0.553,0-1,0.448-1,1v10H65c-0.062,0-0.114,0.024-0.173,0.035C64.424,49.854,63.317,49,62,49   s-2.424,0.854-2.827,2.035C59.114,51.024,59.062,51,59,51H46v-4h8c0.062,0,0.114-0.024,0.173-0.035C54.576,48.146,55.683,49,57,49   c1.657,0,3-1.342,3-3c0-1.318-0.854-2.424-2.035-2.827C57.976,43.114,58,43.062,58,43V16h14c0.062,0,0.115-0.024,0.174-0.035   C72.578,17.145,73.686,18,75,18v4c0,1.654,1.346,3,3,3h14c1.654,0,3-1.346,3-3V8c0-1.654-1.346-3-3-3H78c-1.654,0-3,1.346-3,3v4   c-1.314,0-2.422,0.855-2.826,2.035C72.115,14.024,72.062,14,72,14H57c-0.553,0-1,0.448-1,1v28c0,0.062,0.024,0.114,0.035,0.173   c-0.876,0.299-1.563,0.986-1.862,1.862C54.114,45.024,54.062,45,54,45h-8v-6h-6v-8c0-0.552-0.448-1-1-1s-1,0.448-1,1v8h-4v-8   c0-0.552-0.448-1-1-1s-1,0.448-1,1v8h-4v-8c0-0.552-0.448-1-1-1s-1,0.448-1,1v8h-4v-8c0-0.552-0.448-1-1-1s-1,0.448-1,1v8h-6v6H6   c-0.552,0-1,0.448-1,1s0.448,1,1,1h8v4H6c-0.552,0-1,0.448-1,1s0.448,1,1,1h8v4H6c-0.552,0-1,0.447-1,1s0.448,1,1,1h8v4H6   c-0.552,0-1,0.447-1,1s0.448,1,1,1h8v6h6v8c0,0.553,0.448,1,1,1s1-0.447,1-1v-8h4v8c0,0.553,0.448,1,1,1s1-0.447,1-1v-8h4v8   c0,0.553,0.448,1,1,1s1-0.447,1-1v-8h4v8c0,0.553,0.448,1,1,1s1-0.447,1-1v-8h6v-6h13c0.062,0,0.114-0.024,0.173-0.035   c0.299,0.877,0.985,1.563,1.862,1.862C61.024,66.886,61,66.938,61,67v28c0,0.553,0.447,1,1,1h20c0.062,0,0.115-0.024,0.174-0.035   C82.578,97.145,83.686,98,85,98v4c0,1.654,1.346,3,3,3h14c1.654,0,3-1.346,3-3V88c0-1.654-1.346-3-3-3H88c-1.654,0-3,1.346-3,3v4   c-1.314,0-2.422,0.855-2.826,2.035C82.115,94.024,82.062,94,82,94H63V67c0-0.062-0.024-0.114-0.035-0.173   C64.146,66.424,65,65.318,65,64c0-1.658-1.343-3-3-3c-1.317,0-2.424,0.854-2.827,2.035C59.114,63.024,59.062,63,59,63H46v-4h8   c0.062,0,0.114-0.024,0.173-0.035C54.576,60.146,55.683,61,57,61s2.424-0.854,2.827-2.035C59.886,58.976,59.938,59,60,59h7v9   c0,0.553,0.447,1,1,1h4c0.062,0,0.115-0.024,0.174-0.035C72.578,70.145,73.686,71,75,71v4c0,1.654,1.346,3,3,3h14   c1.654,0,3-1.346,3-3V61c0-1.654-1.346-3-3-3H78c-1.654,0-3,1.346-3,3v4c-1.314,0-2.422,0.855-2.826,2.035   C72.115,67.024,72.062,67,72,67h-3v-9c0-0.553-0.447-1-1-1h-8c-0.062,0-0.114,0.024-0.173,0.035C59.424,55.854,58.317,55,57,55   s-2.424,0.854-2.827,2.035C54.114,57.024,54.062,57,54,57h-8v-4h13c0.062,0,0.114-0.024,0.173-0.035C59.576,54.146,60.683,55,62,55   s2.424-0.854,2.827-2.035C64.886,52.976,64.938,53,65,53h11c0.553,0,1-0.448,1-1V42h5c0.062,0,0.115-0.024,0.174-0.035   C82.578,43.145,83.686,44,85,44v5C85,50.654,86.346,52,88,52z M87,35c0-0.551,0.448-1,1-1h14c0.552,0,1,0.449,1,1v14   c0,0.551-0.448,1-1,1H88c-0.552,0-1-0.449-1-1V35z M77,8c0-0.551,0.448-1,1-1h14c0.552,0,1,0.449,1,1v14c0,0.551-0.448,1-1,1H78   c-0.552,0-1-0.449-1-1V8z M75,14v2c-0.552,0-1-0.449-1-1S74.448,14,75,14z M57,45c0.552,0,1,0.449,1,1s-0.448,1-1,1s-1-0.449-1-1   S56.448,45,57,45z M87,88c0-0.552,0.448-1,1-1h14c0.552,0,1,0.448,1,1v14c0,0.552-0.448,1-1,1H88c-0.552,0-1-0.448-1-1V88z M85,94   v2c-0.552,0-1-0.448-1-1S84.448,94,85,94z M62,63c0.552,0,1,0.448,1,1s-0.448,1-1,1s-1-0.448-1-1S61.448,63,62,63z M77,61   c0-0.552,0.448-1,1-1h14c0.552,0,1,0.448,1,1v14c0,0.552-0.448,1-1,1H78c-0.552,0-1-0.448-1-1V61z M75,67v2c-0.552,0-1-0.448-1-1   S74.448,67,75,67z M57,57c0.552,0,1,0.448,1,1s-0.448,1-1,1s-1-0.448-1-1S56.448,57,57,57z M44,69H16V41h28V69z M62,53   c-0.552,0-1-0.449-1-1s0.448-1,1-1s1,0.449,1,1S62.552,53,62,53z M84,41c0-0.551,0.448-1,1-1v2C84.448,42,84,41.551,84,41z"/><path d="M81.498,19.865C81.653,19.955,81.826,20,82,20c0.171,0,0.343-0.044,0.496-0.132l7-4C89.808,15.69,90,15.359,90,15   s-0.192-0.69-0.504-0.868l-7-4c-0.31-0.177-0.69-0.175-0.998,0.003C81.189,10.314,81,10.644,81,11v8   C81,19.356,81.189,19.686,81.498,19.865z M83,12.723L86.984,15L83,17.277V12.723z"/><path d="M91,48c1.104,0,2-0.896,2-2v-2.977l6-1.531V43c-1.104,0-2,0.896-2,2s0.896,2,2,2c1.104,0,2-0.896,2-2v-8.042   c0-0.309-0.143-0.6-0.387-0.79c-0.244-0.19-0.566-0.257-0.86-0.179l-8,2.042C91.31,38.144,91,38.543,91,39v5c-1.104,0-2,0.896-2,2   S89.896,48,91,48z M99,38.246v1.183l-6,1.531v-1.183L99,38.246z"/><path d="M80,74h10c0.553,0,1-0.447,1-1V63c0-0.553-0.447-1-1-1H80c-0.553,0-1,0.447-1,1v10C79,73.553,79.447,74,80,74z M81,72   v-1.667l1.952-2.603l1.216,1.824c0.166,0.249,0.436,0.411,0.733,0.44c0.305,0.03,0.594-0.076,0.806-0.288L87,68.414l2,2V72H81z    M89,64v3.586l-1.293-1.293c-0.391-0.391-1.023-0.391-1.414,0l-1.138,1.138l-1.323-1.985c-0.18-0.271-0.479-0.436-0.805-0.445   c-0.329-0.009-0.634,0.14-0.827,0.4L81,67.001V64H89z"/><path d="M92,92h8c0.553,0,1-0.447,1-1s-0.447-1-1-1h-8c-0.553,0-1,0.447-1,1S91.447,92,92,92z"/><path d="M90,96h10c0.553,0,1-0.447,1-1s-0.447-1-1-1H90c-0.553,0-1,0.447-1,1S89.447,96,90,96z"/><path d="M90,100h10c0.553,0,1-0.447,1-1s-0.447-1-1-1H90c-0.553,0-1,0.447-1,1S89.447,100,90,100z"/></g></svg>