<svg xmlns="http://www.w3.org/2000/svg" version="1.1" viewBox="-5.0 -10.0 110.0 135.0">
 <path d="m41.129 49.176h-2.4727c-1.2461 0-1.2461-1.8945 0-1.8945h2.4727v-2.0547c0-0.52344 0.42578-0.94922 0.94922-0.94922h2.0547v-2.4727c0-1.25 1.8945-1.25 1.8945 0v2.4727h1.3828v-2.4727c0-1.25 1.8945-1.25 1.8945 0v2.4727h1.3867v-2.4727c0-1.25 1.8945-1.25 1.8945 0v2.4727h1.3867v-2.4727c0-1.25 1.8945-1.25 1.8945 0v2.4727h2.0547c0.52344 0 0.94922 0.42578 0.94922 0.94922v2.0547h2.4727c1.2461 0 1.2461 1.8945 0 1.8945h-2.4727v1.3828h2.4727c1.2461 0 1.2461 1.8945 0 1.8945h-2.4727v1.3867h2.4727c1.2461 0 1.2461 1.8945 0 1.8945h-2.4727v1.3828h2.4727c1.2461 0 1.2461 1.8945 0 1.8945h-2.4727v2.0547c0 0.52344-0.42578 0.94922-0.94922 0.94922h-2.0547v2.4727c0 1.2461-1.8945 1.2461-1.8945 0v-2.4727h-1.3867v2.4727c0 1.2461-1.8945 1.2461-1.8945 0v-2.4727h-1.3867v2.4727c0 1.2461-1.8945 1.2461-1.8945 0v-2.4727h-1.3828v2.4727c0 1.2461-1.8945 1.2461-1.8945 0v-2.4727h-2.0547c-0.52344 0-0.94922-0.42578-0.94922-0.94922v-2.0469h-2.4727c-1.2461 0-1.2461-1.8945 0-1.8945h2.4727v-1.3867h-2.4727c-1.2461 0-1.2461-1.8945 0-1.8945h2.4727v-1.3867h-2.4727c-1.2461 0-1.2461-1.8945 0-1.8945h2.4727zm16.27-11.766c10.848 5.1094 13.438 19.492 4.8945 28.035-1.4141 1.4141-3.0664 2.582-4.8945 3.4453 14.273-2.8672 25.477-13.055 28.23-15.738-2.75-2.6875-13.953-12.875-28.23-15.742zm-14.797 31.48c-10.848-5.1094-13.438-19.492-4.8945-28.035 1.4141-1.4141 3.0664-2.582 4.8945-3.4453-14.273 2.8672-25.477 13.055-28.23 15.738 2.75 2.6875 13.953 12.875 28.23 15.742zm18.355-26.695c-6.0508-6.0508-15.859-6.0508-21.91 0-6.0508 6.0508-6.0508 15.859 0 21.91s15.859 6.0508 21.91 0c6.0469-6.0508 6.0469-15.859 0-21.91zm-10.957-7.4336c-20.82 0-37.598 17.684-37.648 17.734-0.35156 0.36328-0.35156 0.94531 0 1.3125 0.050782 0.046875 16.828 17.734 37.648 17.734s37.602-17.684 37.648-17.734c0.35156-0.36328 0.35156-0.94531 0-1.3086-0.046876-0.054688-16.828-17.738-37.648-17.738zm42.215 10.105v-9.6992c0-2.2656-1.8477-4.1133-4.1133-4.1133l-76.203 0.003906c-2.2617 0-4.1133 1.8477-4.1133 4.1133v35.961c0 2.2656 1.8477 4.1133 4.1133 4.1133h76.207c2.2656 0 4.1133-1.8477 4.1133-4.1133zm-1.8945 26.266v-35.965c0-1.2188-1-2.2148-2.2148-2.2148h-76.207c-1.2148 0-2.2148 1-2.2148 2.2148v35.961c0 1.2188 1 2.2148 2.2148 2.2148h76.207c1.2148 0.003906 2.2148-0.99609 2.2148-2.2109zm-28.988-65.707c-4.0625 0-6.6797 4.2812-4.8984 7.8828l-9.0117 6.6133c-0.26562 0.16797-0.44141 0.46484-0.44141 0.80078v6.0898h-9.0977v-3.2383c2.5859-0.45312 4.5117-2.707 4.5117-5.3789 0-4.8477-5.8906-7.293-9.3242-3.8633-3.1367 3.1367-1.4023 8.4883 2.9141 9.2422v3.2383h-9.2891l0.007813-7.0508c0-0.26562-0.10938-0.50391-0.28516-0.67578l-6.9414-6.9414c1.5234-2.1719 1.2617-5.1211-0.61328-6.9961-3.4336-3.4336-9.3242-0.98828-9.3242 3.8633 0 4.4258 4.9961 6.9961 8.5938 4.4727l6.6719 6.6719v6.6641l-12.906-0.003906c-4.5977 0-8.3555 3.7578-8.3555 8.3555v27.461h1.8945v-27.465c0-3.5508 2.9102-6.457 6.457-6.457h76.207c3.5508 0 6.457 2.9102 6.457 6.457v38.375c0 3.5508-2.9062 6.457-6.457 6.457h-76.203c-3.5508 0-6.457-2.9102-6.457-6.457l-0.003906-10.898h-1.8945v10.898c0 4.5977 3.7578 8.3555 8.3555 8.3555h27.637v6.5078l-11.887-0.003906c-1.7617 0-3 1.6758-3 3.4453v3.3906l0.097656 1.2148h50.52l0.089844-1.2148v-3.3906c0-1.7695-1.2422-3.4453-3-3.4453h-11.891v-6.5078h27.637c4.5977 0 8.3555-3.7578 8.3555-8.3555v-38.371c0-4.5977-3.7578-8.3555-8.3555-8.3555l-39.223 0.003906v-5.6133l8.6797-6.3672c2.1445 2.0547 5.5391 2.0156 7.6367-0.082032 3.4336-3.4375 0.98828-9.3281-3.8633-9.3281zm2.5234 2.9414c1.3945 1.3945 1.3945 3.6484 0 5.043-2.2383 2.2383-6.0859 0.64453-6.0859-2.5195 0-3.168 3.8438-4.7617 6.0859-2.5234zm-24.395 7.3125c1.3945 1.3906 1.3945 3.6484 0 5.043-2.2383 2.2383-6.0859 0.64453-6.0859-2.5234s3.8477-4.7617 6.0859-2.5195zm-21.938-9.1914c1.4102 1.4102 1.3711 3.7227 0 5.043-2.375 2.2891-6.0859 0.55078-6.0859-2.5234-0.003906-3.168 3.8438-4.7617 6.0859-2.5195zm54.828 83.812c0.66797 0 1.1055 0.81641 1.1055 1.5508v2.7109l-46.914-0.003906v-2.7109c0-0.73047 0.43359-1.5508 1.1055-1.5508 14.902 0.003906 29.801 0.003906 44.703 0.003906zm-13.781-8.4062v6.5078h-17.141v-6.5078zm-1.5938-35.719h-13.953v13.949h13.949z" fill-rule="evenodd"/>
<text x="0.0" y="117.5" font-size="5.0" font-weight="bold" font-family="Arbeit Regular, Helvetica, Arial-Unicode, Arial, Sans-serif" fill="#000000">Created by Nunung Anggraini NPH</text><text x="0.0" y="122.5" font-size="5.0" font-weight="bold" font-family="Arbeit Regular, Helvetica, Arial-Unicode, Arial, Sans-serif" fill="#000000">from Noun Project</text></svg>