<svg xmlns="http://www.w3.org/2000/svg" xmlns:xlink="http://www.w3.org/1999/xlink" version="1.1" x="0px" y="0px" viewBox="0 0 100 125" style="enable-background:new 0 0 100 100;" xml:space="preserve"><path d="M50,14.23c-11.02,0-19.99,8.97-19.99,19.99S38.98,54.2,50,54.2c11.02,0,19.99-8.97,19.99-19.99S61.02,14.23,50,14.23z   M50,51.88c-9.74,0-17.66-7.92-17.66-17.66S40.26,16.55,50,16.55s17.66,7.92,17.66,17.66S59.74,51.88,50,51.88z M96.24,79.37  c0-0.32-0.13-0.63-0.38-0.86l-8.32-7.6c-0.22-0.2-0.5-0.3-0.78-0.3v0h-3.14V50.29c0-3.1-2.53-5.63-5.63-5.63H73.2  c0.83-1.85,1.45-3.8,1.82-5.8h1.23c2.56,0,4.65-2.08,4.65-4.65c0-2.56-2.08-4.65-4.65-4.65h-1.23c-0.65-3.49-2.03-6.82-4.04-9.75  l0.87-0.87c1.81-1.81,1.81-4.76,0-6.57c-0.87-0.87-2.04-1.36-3.29-1.36c-1.24,0-2.41,0.48-3.29,1.36l-0.87,0.87  c-2.93-2.01-6.27-3.4-9.75-4.04V7.97c0-2.56-2.08-4.65-4.65-4.65c-2.56,0-4.65,2.08-4.65,4.65V9.2c-3.49,0.65-6.82,2.03-9.75,4.04  l-0.87-0.87c-0.87-0.87-2.04-1.36-3.29-1.36c-1.24,0-2.41,0.48-3.29,1.36c-1.81,1.81-1.81,4.76,0,6.57l0.87,0.87  c-2.01,2.93-3.4,6.27-4.04,9.75h-1.23c-2.56,0-4.65,2.08-4.65,4.65c0,2.56,2.08,4.65,4.65,4.65h1.23c0.37,2,0.98,3.95,1.82,5.8  h-4.79c-3.1,0-5.63,2.53-5.63,5.63v20.32H4.92c-0.64,0-1.16,0.52-1.16,1.16v23.74c0,0.64,0.52,1.16,1.16,1.16h25.25  c0.64,0,1.16-0.52,1.16-1.16V79.37h0c0-0.32-0.13-0.63-0.38-0.86l-8.32-7.6c-0.22-0.2-0.5-0.3-0.78-0.3v0h-3.14V50.29  c0-1.82,1.48-3.31,3.31-3.31H28c0.32,0.56,0.67,1.1,1.03,1.63l-0.87,0.87c-0.87,0.87-1.36,2.04-1.36,3.29  c0,1.24,0.48,2.41,1.36,3.29c0.87,0.88,2.04,1.36,3.29,1.36c0,0,0,0,0,0c1.24,0,2.41-0.48,3.29-1.36l0.87-0.87  c2.93,2.01,6.27,3.4,9.75,4.04v1.23c0,2.16,1.48,3.98,3.48,4.5v5.66H37.38c-0.64,0-1.16,0.52-1.16,1.16v23.74  c0,0.64,0.52,1.16,1.16,1.16h25.25c0.64,0,1.16-0.52,1.16-1.16V79.37h0c0-0.32-0.13-0.63-0.38-0.86l-8.32-7.6  c-0.22-0.2-0.5-0.3-0.78-0.3v0h-3.14v-5.66c2-0.52,3.48-2.34,3.48-4.5v-1.23c3.49-0.65,6.82-2.03,9.75-4.04l0.87,0.87  c0.87,0.88,2.04,1.36,3.29,1.36c1.24,0,2.41-0.48,3.29-1.36c0.87-0.87,1.36-2.04,1.36-3.29c0-1.24-0.48-2.41-1.36-3.29l-0.87-0.87  c0.37-0.53,0.71-1.08,1.03-1.63h5.98c1.82,0,3.31,1.48,3.31,3.31v20.32H69.83c-0.64,0-1.16,0.52-1.16,1.16v23.74  c0,0.64,0.52,1.16,1.16,1.16h25.25c0.64,0,1.16-0.52,1.16-1.16L96.24,79.37L96.24,79.37z M23.01,74.41l4.16,3.8h-4.16V74.41z   M20.69,72.94v6.43c0,0.64,0.52,1.16,1.16,1.16h7.16v13.82H6.08V72.94H20.69z M55.47,74.41l4.16,3.8h-4.16V74.41z M53.15,72.94v6.43  c0,0.64,0.52,1.16,1.16,1.16h7.16v13.82H38.54V72.94H53.15z M68.52,48.04c-0.35,0.46-0.3,1.11,0.11,1.52l1.57,1.57  c0.44,0.44,0.68,1.02,0.68,1.64c0,0.62-0.24,1.21-0.68,1.64c-0.44,0.44-1.02,0.68-1.64,0.68c-0.62,0-1.21-0.24-1.64-0.68l-1.57-1.57  c-0.41-0.41-1.05-0.45-1.52-0.11c-3.08,2.3-6.72,3.81-10.51,4.36c-0.57,0.08-1,0.57-1,1.15v2.21c0,1.28-1.04,2.32-2.32,2.32  c-1.28,0-2.32-1.04-2.32-2.32v-2.21c0-0.58-0.42-1.07-1-1.15c-3.79-0.55-7.43-2.05-10.51-4.36c-0.21-0.16-0.45-0.23-0.7-0.23  c-0.3,0-0.6,0.12-0.82,0.34l-1.57,1.57c-0.44,0.44-1.02,0.68-1.64,0.68c-0.62,0-1.21-0.24-1.64-0.68c-0.44-0.44-0.68-1.02-0.68-1.64  c0-0.62,0.24-1.21,0.68-1.64l1.57-1.57c0.41-0.41,0.45-1.06,0.11-1.52c-2.3-3.08-3.81-6.71-4.36-10.51c-0.08-0.57-0.57-1-1.15-1  h-2.21c-1.28,0-2.32-1.04-2.32-2.32c0-1.28,1.04-2.32,2.32-2.32h2.21c0.58,0,1.07-0.42,1.15-1c0.55-3.79,2.05-7.43,4.36-10.51  c0.35-0.46,0.3-1.11-0.11-1.52L29.8,17.3c-0.91-0.91-0.91-2.38,0-3.28c0.44-0.44,1.02-0.68,1.64-0.68c0.62,0,1.21,0.24,1.64,0.68  l1.57,1.57c0.41,0.41,1.05,0.45,1.52,0.11c3.08-2.3,6.71-3.81,10.51-4.36c0.57-0.08,1-0.57,1-1.15V7.97c0-1.28,1.04-2.32,2.32-2.32  c1.28,0,2.32,1.04,2.32,2.32v2.21c0,0.58,0.42,1.07,1,1.15c3.79,0.55,7.43,2.05,10.51,4.36c0.46,0.35,1.11,0.3,1.52-0.11l1.57-1.57  c0.44-0.44,1.02-0.68,1.64-0.68c0.62,0,1.21,0.24,1.64,0.68c0.91,0.91,0.91,2.38,0,3.28l-1.57,1.57c-0.41,0.41-0.45,1.05-0.11,1.52  c2.3,3.08,3.81,6.72,4.36,10.51c0.08,0.57,0.57,1,1.15,1h2.21c1.28,0,2.32,1.04,2.32,2.32c0,1.28-1.04,2.32-2.32,2.32h-2.21  c-0.58,0-1.07,0.42-1.15,1C72.33,41.33,70.83,44.96,68.52,48.04z M87.93,74.41l4.16,3.8h-4.16V74.41z M93.92,94.35H70.99V72.94H85.6  v6.43c0,0.64,0.52,1.16,1.16,1.16h7.16V94.35z M72.97,77.74c0-0.64,0.52-1.16,1.16-1.16h8.41c0.64,0,1.16,0.52,1.16,1.16  c0,0.64-0.52,1.16-1.16,1.16h-8.41C73.49,78.9,72.97,78.38,72.97,77.74z M74.13,82.48h13.64c0.64,0,1.16,0.52,1.16,1.16  c0,0.64-0.52,1.16-1.16,1.16H74.13c-0.64,0-1.16-0.52-1.16-1.16C72.97,83,73.49,82.48,74.13,82.48z M88.93,89.55  c0,0.64-0.52,1.16-1.16,1.16H74.13c-0.64,0-1.16-0.52-1.16-1.16c0-0.64,0.52-1.16,1.16-1.16h13.64  C88.41,88.39,88.93,88.91,88.93,89.55z M40.52,77.74c0-0.64,0.52-1.16,1.16-1.16h8.41c0.64,0,1.16,0.52,1.16,1.16  c0,0.64-0.52,1.16-1.16,1.16h-8.41C41.04,78.9,40.52,78.38,40.52,77.74z M40.52,83.64c0-0.64,0.52-1.16,1.16-1.16h13.64  c0.64,0,1.16,0.52,1.16,1.16c0,0.64-0.52,1.16-1.16,1.16H41.68C41.04,84.8,40.52,84.28,40.52,83.64z M40.52,89.55  c0-0.64,0.52-1.16,1.16-1.16h13.64c0.64,0,1.16,0.52,1.16,1.16c0,0.64-0.52,1.16-1.16,1.16H41.68  C41.04,90.71,40.52,90.19,40.52,89.55z M8.06,77.74c0-0.64,0.52-1.16,1.16-1.16h8.41c0.64,0,1.16,0.52,1.16,1.16  c0,0.64-0.52,1.16-1.16,1.16H9.22C8.58,78.9,8.06,78.38,8.06,77.74z M8.06,83.64c0-0.64,0.52-1.16,1.16-1.16h13.64  c0.64,0,1.16,0.52,1.16,1.16c0,0.64-0.52,1.16-1.16,1.16H9.22C8.58,84.8,8.06,84.28,8.06,83.64z M8.06,89.55  c0-0.64,0.52-1.16,1.16-1.16h13.64c0.64,0,1.16,0.52,1.16,1.16c0,0.64-0.52,1.16-1.16,1.16H9.22C8.58,90.71,8.06,90.19,8.06,89.55z"/><text x="0" y="115" fill="#000000" font-size="5px" font-weight="bold" font-family="'Helvetica Neue', Helvetica, Arial-Unicode, Arial, Sans-serif">Created by kartini 1</text><text x="0" y="120" fill="#000000" font-size="5px" font-weight="bold" font-family="'Helvetica Neue', Helvetica, Arial-Unicode, Arial, Sans-serif">from the Noun Project</text></svg>